<?xml version="1.0" encoding="UTF-8" standalone="no"?><!DOCTYPE svg PUBLIC "-//W3C//DTD SVG 1.1//EN" "http://www.w3.org/Graphics/SVG/1.1/DTD/svg11.dtd"><svg width="100%" height="100%" viewBox="0 0 1012 735" version="1.1" xmlns="http://www.w3.org/2000/svg" xmlns:xlink="http://www.w3.org/1999/xlink" xml:space="preserve" xmlns:serif="http://www.serif.com/" style="fill-rule:evenodd;clip-rule:evenodd;stroke-linejoin:round;stroke-miterlimit:2;"><g><path d="M614.43,457.568c-5.366,-38.837 -8.19,-77.332 -10.626,-116.464c-0.242,-3.88 5.604,-3.76 5.972,0c3.792,38.769 7.149,77.058 8.005,116.011c0.042,1.89 -3.087,2.373 -3.351,0.453Zm-407.917,-145.418c-0.52,1.616 -2.685,0.908 -2.468,-0.681c3.02,-22.042 4.754,-43.672 12.893,-64.469c1.135,-2.901 6.13,-2.816 5.865,0.795c-1.657,22.597 -9.378,42.863 -16.29,64.355Zm135.616,-96.166c0.091,-3.849 5.88,-3.842 5.971,0c0.156,6.558 1.78,14.926 -0.518,21.156c-0.894,2.424 -4.043,2.42 -4.936,0c-2.301,-6.24 -0.673,-14.595 -0.517,-21.156Zm98.975,-19.645c7.202,35.483 12.663,74.515 9.572,110.687c-0.55,6.433 -9.982,8.451 -11.73,1.587c-8.969,-35.214 -10.071,-74.648 -8.735,-110.8c0.106,-2.849 2.261,-4.698 4.633,-5.243c1.773,-62.011 -6.073,-131.912 -10.547,-165.796c15.216,16.038 38.193,42.074 46.915,61.619l19.591,73.813l-50.264,32.767c0.216,0.424 0.456,0.826 0.565,1.366Zm108.999,348.381l25.403,12.748l16.481,114.031l-22.42,31.591c-5.358,-42.813 -15.592,-126.619 -19.464,-158.37Zm-81.363,-330.938l-24.142,-5.158l37.941,-24.735l-13.799,29.893Zm39.3,132.341l-7.399,5.623l16.413,-128.133l17.354,-29.975l8.209,38.28l-34.577,114.205Zm-29.254,-4.599c-0.805,5.599 -1.86,11.092 -2.777,16.637c0.79,-0.412 1.984,-0.029 1.902,1.067c-4.06,53.835 -15.11,105.278 -28.719,157.539c-0.533,2.05 -4.021,1.665 -3.77,-0.511c4.876,-42.388 11.074,-83.839 21.16,-124.881c2.968,-16.861 6.18,-33.631 10.148,-50.418c0.323,-1.371 2.246,-0.75 2.056,0.567Zm37.657,173.402c0.307,-32.786 1.718,-83.156 2.843,-119.535c7.646,21.205 17.851,48.039 26.188,64.773l7.505,54.681l-36.536,0.081Zm-104.107,133.024c0.423,-1.305 2.501,-0.731 2.057,0.567c-8.548,24.968 -17.095,49.937 -25.642,74.906c-0.177,0.516 -0.993,0.297 -0.823,-0.228c8.136,-25.081 16.272,-50.164 24.408,-75.245Zm-114.499,-153.562l34.399,40.96l-13.768,85.404l-47.444,27.154c10.232,-53.936 21.884,-123.621 26.813,-153.518Zm-39.711,-89.39c12.263,-123.712 10.373,-207.356 9.414,-231.5l32.607,-0.206c-3.586,92.866 -27.661,206.885 -42.021,231.706Zm-112.438,14.345l15.868,-9.643c-24.855,97.065 -70.176,194.018 -88.853,231.846l-13.253,0.014c32.663,-64.825 67.289,-148.698 86.238,-222.217Zm111.447,205.75c21.081,-96.598 34.851,-194.345 40.862,-293.047c0.183,-3.001 4.851,-3.023 4.693,-0c-9.568,181.622 -49.468,310.944 -45.555,293.047Zm66.763,68.619c15.498,-28.687 59.665,-112.35 73.199,-158.664l12.408,-3.283c-20.411,63.773 -42.188,125.609 -55.177,161.736c-12.843,0.337 -23.318,0.318 -30.43,0.211Zm408.312,-307.203c0.318,4.86 -7.267,5.732 -8.379,1.134c-15.622,-64.596 -21.102,-130.675 -18.337,-196.806c-3.69,-35.108 -7.47,-67.892 -10.093,-90.02c22.235,33.12 61.539,91.32 77.085,112.172c4.265,14.019 46.166,151.878 59.567,201.293c0.577,2.138 2.16,3.866 4.244,4.626l68.259,24.94c43.299,119.884 32.207,83.485 51.019,163.114l-88.952,32.417c-26.551,-108.127 -40.697,-198.382 -40.839,-199.303c-0.52,-3.323 -3.382,-5.777 -6.745,-5.777c-0.037,0 -14.934,0.045 -14.97,0.045l-34.494,-180.547c-0.454,-2.364 -2.115,-4.314 -4.377,-5.137l-44.032,-15.967c3.734,51.27 7.683,102.518 11.044,153.816Zm9.14,115.21c-1.329,4.321 -6.932,4.91 -9.356,1.223c-6.596,-10.033 -5.846,-11.83 -8.234,-34.433c-0.964,-9.115 14.316,-11.039 15.919,-2.155c1.095,6.064 2.19,12.129 3.285,18.194c1.16,6.43 0.285,10.993 -1.614,17.171Zm269.13,91.595l-27.464,-53.498c-1.124,-2.195 -3.35,-3.612 -5.812,-3.706l-25.149,-0.942l-35.743,-98.958c-0.688,-1.897 -2.181,-3.4 -4.078,-4.092l-17.183,-6.277l-45.446,-138.848c-0.6,-1.835 -1.951,-3.328 -3.715,-4.11l-43.908,-19.535c-0.598,-1.989 -16.612,-55.936 -17.864,-57.593c-18.663,-24.815 -98.225,-143.199 -93.384,-136.368c-0.518,-0.73 -2.236,-2.078 -2.796,-2.321c-0.519,-0.226 -2.609,-0.596 -3.653,-0.455c-2.041,0.278 -2.96,1.127 -2.96,1.127c-1.869,1.29 -68.014,48.813 -69.865,50.142c6.615,58.414 4.328,119.554 0.299,175.415c-0.487,6.745 -11.373,9.223 -12.568,1.701c-5.413,-34.053 -10.325,-69.742 -13.029,-105.698l-33.045,15.667c-0.772,0.365 -1.419,0.911 -1.993,1.518c-7.465,-34.806 -7.15,-33.205 -7.15,-33.205c-0.112,-0.455 -0.521,-1.455 -0.991,-2.153c-0.558,-0.832 -1.322,-1.625 -2.213,-2.137c-1.371,-0.786 -35.006,-9.021 -36.539,-9.404c-0.21,-0.791 -19.974,-75.441 -20.306,-76.189c-14.241,-32.601 -62.518,-79.128 -64.567,-81.091c-0.433,-0.417 -0.957,-0.649 -1.459,-0.929c-0.186,-0.104 -0.295,-0.299 -0.492,-0.387c-0.051,-0.023 -0.109,-0.007 -0.161,-0.028c-2.052,-0.855 -4.313,-0.475 -5.87,0.387c-0.145,0.079 -0.32,0.066 -0.46,0.157l-53.103,34.507c4.775,38.528 -0.715,82.671 -4.573,118.556c-0.702,6.531 -11.508,9.406 -12.568,1.701c-4.281,-31.114 -10.021,-68.372 -9.288,-103.084c-20.994,13.643 -2.788,-8.578 -29.61,106.449c-43.654,0.272 -41.652,0.297 -41.652,0.297c-0.834,0.008 -2.148,0.359 -3.251,1.038c-1.486,0.908 -47.483,37.454 -48.847,38.536c-1.463,1.159 -2.386,2.865 -2.556,4.718c-1.936,20.919 -9.735,59.408 -17.936,96.257c-1.792,1.012 -85.085,55.536 -86.807,56.661c-1.493,0.98 -2.542,2.503 -2.927,4.248c23.252,-12.157 45.779,-23.982 71.336,-31.981c2.342,-0.733 3.709,2.714 1.643,3.898c-23.832,13.667 -48.34,22.195 -73.716,31.24c-18.986,82.582 -95.687,256.344 -96.472,258.113c-1.992,4.518 1.314,9.589 6.251,9.589l42.032,-0.045c-4.052,8.113 -6.506,12.762 -6.626,12.988c-2.406,4.527 0.861,10.029 6.029,10.029l17.563,-0.016c-1.824,3.546 -3.473,5.904 -1.451,9.498c1.137,2.021 3.226,3.328 5.541,3.466c6.631,0.397 14.617,0.691 23.483,0.904c38.486,-98.251 71.976,-197.888 99.098,-301.314c1.047,-3.996 7.107,-2.298 6.169,1.701c-23.91,102.011 -52.822,202.781 -91.222,299.872c18.015,0.252 36.807,0.252 54.798,0.151c6.591,-36.926 19.88,-72.853 31.04,-108.399c4.102,-13.063 24.147,-7.639 20.566,5.67c-9.149,34.001 -16.8,69.446 -29.669,102.554c40.276,-0.408 74.666,-1.202 77.482,-1.268c1.053,-0.025 2.01,-0.359 2.901,-0.814c2.245,-1.129 59.747,-34.093 61.928,-35.342l14.106,0c-17.694,35.438 -33.686,64.454 -34.004,65.033c-2.438,4.408 0.59,9.861 5.62,10.118c5.708,0.317 19.743,0.595 37.128,0.246c-4.131,11.384 -6.639,18.152 -6.775,18.518c-1.654,4.461 1.66,9.203 6.398,9.203c0.071,-0 0.142,-0 0.218,-0.005c2.344,-0.075 216.717,-6.522 218.818,-7.562c0.252,-0.124 1.717,-1.14 2.177,-1.68c0.073,-0.085 0.088,-0.201 0.157,-0.289c0.061,-0.079 0.159,-0.105 0.216,-0.187l34.139,-48.103c1.013,-1.432 1.44,-3.191 1.187,-4.928l-2.462,-17.027l4.778,0c-0.662,-25.587 1.82,-51.653 3.314,-72.962c0.381,-5.448 8.339,-5.528 8.531,0c0.849,24.5 2.912,48.76 6.682,72.962l235.085,0c1.874,0 143.165,-51.737 144.925,-52.379c3.86,-1.406 5.61,-5.89 3.74,-9.526Z" style="fill:#2d2d2d;fill-rule:nonzero;"/></g></svg>