<?xml version="1.0" encoding="UTF-8" standalone="no"?>
<!DOCTYPE svg PUBLIC "-//W3C//DTD SVG 1.1//EN" "http://www.w3.org/Graphics/SVG/1.1/DTD/svg11.dtd">
<svg width="100%" height="100%" viewBox="0 0 6367 6367" version="1.1" xmlns="http://www.w3.org/2000/svg" xmlns:xlink="http://www.w3.org/1999/xlink" xml:space="preserve" xmlns:serif="http://www.serif.com/" style="fill-rule:evenodd;clip-rule:evenodd;stroke-linejoin:round;stroke-miterlimit:2;">
    <g transform="matrix(1,0,0,1,-1.02318e-12,-9038)">
        <g id="Artboard1" transform="matrix(1.05915,0,0,1.35762,753.712,9903.07)">
            <rect x="-711.621" y="-637.192" width="6011.43" height="4689.82" style="fill:none;"/>
            <clipPath id="_clip1">
                <rect x="-711.621" y="-637.192" width="6011.43" height="4689.82"/>
            </clipPath>
            <g clip-path="url(#_clip1)">
                <g transform="matrix(1.03363,0,0,0.806383,-300.369,-1073.04)">
                    <path d="M3393.06,2112.85L3377.17,2135.99L3314.92,2194.52L3306.66,2213.49L3282.54,2287.73L3278.34,2311.98L3292.88,2325.49L3320.3,2317.71L3347.84,2316.81L3363.37,2351.74L3357.32,2390.58L3337.22,2412.96L3290.86,2438.16L3287.26,2445.03L3283.48,2460.27L3279.16,2465.39L3247.18,2467.2L3240.79,2469.62L3239.42,2481.55L3245.89,2491.73L3251.85,2505L3248.95,2524.64L3237.86,2534.14L3221.78,2540.45L3208.83,2548.41L3208.64,2561.33L3246.71,2616.52L3167.8,2661.82L3144.7,2665.78L3123.46,2654.11L3095.41,2614.58L3075.56,2599.09L3020.65,2589.84L2914.93,2603.41L2862.48,2579.14L2818.9,2546.35L2803.96,2520.24L2808.05,2482.73L2817.74,2471.86L2847.33,2465.39L2859.38,2458.85L2867.37,2445.28L2878.26,2415.11L2887.11,2403.43L2930.42,2359.96L2957.6,2307.01L2966.64,2242.74L2954.16,2161.14L2944.33,2125.53L2937.62,2093.55L2937.81,2061.25L2947.88,2024.06L2951.85,1988.53L2967.12,1958.62L2988.22,1939.4L3009.44,1935.92L3030.55,1955.73L3027.56,1983.71L3021.3,2015.1L3032.98,2044.43L3045.72,2050.9L3073.18,2049.49L3086.75,2056.19L3100.54,2067.88L3112.99,2074.34L3125.93,2076.58L3141.1,2076.58L3169.67,2068.8L3225.58,2038.81L3281.82,2031.92L3339.41,2001.6L3369.1,2005.59L3390.11,2024.47L3401.72,2050.57L3403.01,2080.47L3393.06,2112.85ZM1470.73,3549.86L1444.64,3567.68L1417.02,3578.18L1397.23,3571.14L1392.53,3540.63L1397.76,3503.41L1393.16,3472.52L1359.28,3459.33L1342.23,3445L1317.11,3380.73L1293.72,3365.98L1269.45,3359.91L1200.14,3310.05L1200.14,3291.25L1228.27,3285.95L1271.3,3238.41L1299.69,3233.77L1306.68,3254.97L1313.51,3260.7L1320.97,3261.75L1330.41,3270.9L1336.03,3285.49L1340.88,3305.25L1343.54,3321.73L1342.46,3327.12L1358.37,3337.99L1398.45,3353L1419,3365.98L1415.94,3378.24L1411.26,3409.64L1407.98,3422.28L1431.68,3428.44L1448.03,3460.34L1463.69,3500.93L1485.69,3533.8L1470.73,3549.86ZM4687.66,2687.87L4698.43,2661.82L4688.4,2654.58L4637.7,2576.48L4630.92,2538.3L4621.48,2429.27L4610.37,2407.17L4583.38,2391.36L4564.5,2351.09L4539.38,2254.41L4535.14,2226.59L4534,2202.83L4528.86,2186.89L4511.96,2180.45L4496.73,2171.93L4476.83,2133.33L4467.81,2123.89L4275.72,2155.94L4240.34,2152.46L4215.18,2132.65L4190.31,2122.96L4155.59,2138.85L4100.61,2180.45L4044.28,2208.2L4028.69,2226.59L3993.07,2283.91L3975.44,2300.96L3966.82,2318.3L3954.81,2331.7L3934.56,2329.81L3930.51,2316.45L3928.93,2291.62L3922.29,2267.43L3902.72,2254.41L3961.43,2145.76L3992.25,2104.25L4034,2065.89L4077.18,2042.29L4172.68,2013.79L4220.04,1990.1L4255.91,1950.01L4278.88,1888.63L4283.16,1811.26L4263.88,1723.29L4233.89,1678.39L4184.27,1633.83L4136.07,1620.9L4110.72,1668.12L4212.84,1777.29L4242.09,1836.85L4231.97,1836.85L4194.04,1779.45L4146.48,1760.06L4105.9,1734.46L4088.85,1658.01L4084.38,1617.59L4073.09,1583.62L4058.69,1555.54L4044.03,1533.84L4031.36,1519.27L4006.01,1497.56L3995.9,1485.31L3986.2,1464.34L3975.44,1419.62L3968.38,1400.99L3935.93,1352.44L3897.87,1316.74L3855.01,1294.61L3808.19,1286.67L3805.05,1267.37L3833.98,1164.14L3837.16,1113.87L3825.19,1087.61L3804.37,1069.89L3780.56,1059.45L3759.32,1056.22L3729.5,1058.13L3699.2,1053.9L3686.81,1029.39L3710.37,968.836L3720.97,922.846L3726.68,766.721L3710.5,736.806L3651.24,670.449L3638.17,663.254L3624.43,642.045L3592.53,626.957L3529.71,615.631L3498.48,621.257L3437.44,647.756L3401.93,653.73L3376.33,646.438L3220.65,557.64L3180.06,547.198L3119.56,587.541L3081.12,575.866L3023.39,540.498L2987.86,544.881L2953.28,562.77L2922.24,590.775L2897.69,624.651L2870.84,645.531L2759.98,653.73L2577.16,739.138L2370.04,749.409L2338.26,736.806L2269.23,689.679L2243.63,691.829L2233.89,730.854L2223.86,857.74L2205.32,884.587L2186.79,904.553L2167.79,950.27L2155.25,1001.63L2156.15,1037.25L2132.53,1054.31L2097.55,1099.79L2079.49,1113.87L2024.26,1121.5L1969.05,1113.87L1899.2,1077.02L1870.66,1073.45L1797.48,1095.31L1772.13,1094.41L1787.7,1042.14L1774.57,1044.7L1755.61,1053.4L1741.49,1070.71L1729.18,1090.59L1716.1,1105.17L1613.75,1121.08L1594.66,1135.99L1578.51,1154.45L1533.23,1224.96L1539.8,1249.64L1535.59,1254.11L1527.18,1257.42L1520.65,1277.06L1529.84,1348.21L1527.79,1371.32L1514.22,1393.61L1482.42,1406.61L1469.21,1424L1463.23,1456.98L1470.05,1527.55L1470.05,1556.45L1453.28,1616.52L1428.21,1665.22L1311.91,1810.27L1301.71,1848.04L1298.53,1916.79L1303.9,1937.16L1312.43,1947.03L1312.31,1952.9L1291.45,1962.01L1274.72,1960.85L1244.6,1944.79L1196.49,1959.11L1141.54,1944.12L1112.92,1960.85L1057.18,2016.27L1002.31,2047.59L947.924,2051.47L894.949,2023.39L849.158,1983.3L827.156,1982.23L772.349,2037.89L692.822,2077.49L719.185,2099.78L728.938,2105.16L716.612,2146.56L729.826,2175.16L756.332,2192.37L784.086,2200.17L797.489,2209.1L813.609,2243.88L826.316,2257.82L839.653,2258.42L864.56,2239.41L876.615,2235.7L898.761,2248.72L950.053,2295.08L975.193,2304.73L1002.06,2291.62L1026.82,2273.38L1043.97,2277.61L1048.31,2333.18L981.893,2355.05L822.374,2507.72L760.989,2531.83L698.067,2528.94L576.566,2500.43L542.828,2538.55L510.27,2586.58L490.633,2627.16L482.394,2638.69L464.038,2656.26L424.569,2679.36L339.417,2704.45L321.694,2744.64L326.835,2765.67L330.101,2788.13L345.632,2810.72L383.942,2853.42L452.027,2949.51L489.641,2988.99L529.909,3010.36L576.566,3010.87L610.491,3096.93L631.396,3136.2L658.999,3166.97L685.697,3177.51L748.537,3187.37L771.949,3205.11L782.609,3248.69L788.931,3369.98L810.215,3412.13L841.444,3431.34L929.402,3443.53L1024.65,3436.66L1053.24,3442.52L1168.81,3528.83L1179.95,3546.32L1182.56,3570.51L1187.73,3593.86L1206.69,3607.26L1377.76,3647.84L1412.34,3640.68L1478.19,3588.55L1518.1,3591.87L1500.42,3615.48L1506.02,3619.35L1522.13,3616.95L1535.32,3620.79L1547.12,3644.39L1550.19,3656.57L1557.29,3658.46L1580.98,3652.9L1658.76,3679.24L1685.44,3676.54L1648.79,3599.5L1648.79,3581.76L1660.38,3567.09L1709.04,3538.6L1714.52,3545.56L1709.86,3565.11L1707.56,3589.47L1707.94,3620.79L1706.07,3645.57L1711.86,3656.15L1733.86,3644.89L1748.85,3628.2L1760.37,3604.48L1764.63,3576.87L1757.42,3549.18L1788.82,3533.21L1786.82,3519.05L1771.92,3506.2L1764.16,3495.62L1773.2,3468.1L1783.61,3450.31L1796.62,3436.66L1814.86,3422.75L1902.63,3399.61L1936.96,3376.6L1926.68,3331.59L1948.84,3300.95L1891.78,3252.57L1901.43,3214.55L1847.72,3187.88L1843.86,3158.29L1851.61,3156.35L1863.5,3160.14L1872.26,3149.27L1874.31,3149.44L1886.72,3123.94L1886.24,3122.51L1882,3118.21L1875.82,3104.22L1871.93,3087.23L1874.31,3074.34L1885.33,3068.35L1913.4,3073.75L1926.42,3073.24L1979.08,3033.16L2056.92,2909.8L2103.81,2863.45L2154.09,2859.02L2208.26,2886.62L2307.64,2970.28L2318.83,2988.57L2333.5,3035.14L2346.37,3042.77L2365.51,3044.67L2375.49,3055.29L2409.61,3149.44L2412.39,3189.18L2399.56,3216.78L2371.56,3231.88L2428.34,3261.29L2442.72,3277.77L2450.01,3300.95L2455.51,3327.37L2464.82,3355.1L2491.41,3398.56L2522.6,3435.31L2556.88,3464.39L2591.66,3486.51L2610.87,3488.41L2623.75,3474.33L2635.84,3456.67L2652.97,3446.35L2672.05,3448.92L2689.14,3458.49L2722.77,3487.4L2759.1,3530.56L2768.35,3579.19L2753.22,3629.38L2717.23,3675.95L2734.25,3707.31L2732.23,3738.16L2707.43,3802.01L2731.89,3822.41L2774.71,3874.58L2797.37,3887.1L2806.15,3881.79L2823.26,3855.36L2831.56,3846.01L2844.29,3843.27L2868.82,3853.72L2881.4,3855.36L3018.35,3804.58L3062.73,3802.01L3063.81,3806.98L3070.15,3818.57L3079.63,3830.75L3089.87,3837.87L3101.31,3837.87L3142.61,3822.83L3180.27,3816.76L3190.51,3806.98L3197.21,3784.22L3196.12,3761.51L3193.32,3740.81L3195.32,3723.75L3216.56,3687.21L3229.73,3689.44L3242.04,3708.32L3261.04,3721.77L3282.28,3717.21L3305.14,3705.41L3329.17,3702.13L3353.7,3722.74L3363.58,3703.94L3397.8,3718.14L3445.72,3721.51L3488.52,3736.77L3506.81,3787.05L3527.35,3788.52L3650.23,3834.5L3637.31,3837.45L3605.43,3852.88L3605.43,3870.37L3633.31,3890.68L3658.6,3895.28L3721.13,3889.96L3742.55,3879.98L3810.7,3827.76L3860.26,3775.2L3927.22,3740.81L3956.47,3703.94L3973.29,3660.44L3987.2,3606.25L3996.83,3549.86L4001.21,3497.51L3997.73,3393.25L4007.34,3360.42L4038.97,3348.41L4070.6,3342.29L4139.7,3316.67L4207.87,3309.76L4301.07,3317.68L4320.45,3337.99L4325.66,3359.91L4338.01,3362.73L4352.19,3355.95L4363.28,3348.41L4374.27,3292.1L4381.42,3289.27L4399.65,3294.08L4407.02,3292.1L4460.1,3237.27L4502.67,3174.22L4522.24,3095.58L4506.67,2991.06L4460.04,2940.78L4391.85,2960.17L4317.72,3004.08L4252.94,3028.27L4270.26,2999.66L4328.89,2951.95L4341.57,2926.37L4386.06,2782.74L4374.27,2765.67L4382.41,2747.97L4384.39,2740.09L4386.06,2728.71L4365.66,2721.54L4355.73,2697.69L4355.56,2665.78L4363.28,2632.81L4314.55,2605.48L4324.76,2592.79L4360.05,2586.01L4386.06,2576.48L4368.08,2560.4L4308.53,2556.1L4296.75,2546.98L4282.34,2533.01L4264.45,2521.23L4242.09,2519.9L4257.49,2503.36L4271.08,2480.22L4275.8,2452.58L4263.88,2425.64L4263.88,2407.17L4312.07,2409.5L4355.39,2434.34L4466.91,2540.95L4494.47,2587.82L4511.48,2651.29L4517.53,2736.69L4509.64,2778.35L4472.6,2825.72L4461.83,2858.01L4464.57,2888.69L4476.18,2919.58L4493,2943.61L4511.96,2954.05L4528.19,3007.66L4543.28,3046.22L4562.26,3065.95L4584.2,3061.48L4604.24,3022.88L4627.94,3009.77L4604.89,2979.47L4613.18,2957.68L4634.37,2938.97L4649.71,2917.77L4655.76,2872.21L4644.65,2826.61L4654.77,2793.27L4685.6,2745.06L4693.63,2728.71L4694.2,2714L4689.24,2703.04L4687.66,2687.87Z" style="fill:white;fill-rule:nonzero;"/>
                </g>
                <g transform="matrix(32.4719,0,0,25.333,-6862.05,-686.726)">
                    <path d="M334.967,78.479L335.477,134.075C335.477,134.075 336.603,134.751 337.053,135.651C337.502,136.552 337.502,139.928 337.502,139.928C337.502,139.928 337.48,141.612 337.51,142.901C337.539,144.191 337.567,145.452 337.333,146.653C337.098,147.855 336.483,147.914 336.483,147.914C336.483,147.914 338.285,149.335 338.827,149.804C339.369,150.273 339.882,151.329 339.882,151.329C339.882,151.329 346.214,149.833 347.27,149.54C348.324,149.247 349.672,148.075 351.607,148.72C353.541,149.364 353.952,150.067 354.89,150.067C355.828,150.067 361.809,149.776 363.039,148.896C364.27,148.017 366.205,145.555 366.205,145.555C366.205,145.555 366.852,144.97 366.265,144.589C365.679,144.208 366.5,143.006 366.705,143.036C366.91,143.064 367.525,144.442 367.848,144.237C368.17,144.032 368.698,143.093 368.668,142.273C368.64,141.453 367.965,141.101 368.405,140.515C368.845,139.928 370.34,140.427 370.515,141.276C370.69,142.127 370.515,144.326 370.603,146.348C370.69,148.37 371.602,149.308 371.455,150.07C371.309,150.833 371.045,151.771 369.843,151.624C368.642,151.477 366.502,150.452 364.714,151.419C362.926,152.387 361.138,154.175 359.966,154.731C358.793,155.288 354.661,155.552 354.661,155.552L354.837,157.487C354.837,157.487 353.781,156.844 352.403,156.609C351.026,156.375 349.268,156.639 349.268,156.639C349.268,156.639 353.458,156.96 354.63,159.452C355.803,161.944 356.066,162.588 356.066,162.588L353.956,164.318C353.956,164.318 353.545,169.916 353.135,172.026C352.725,174.136 353.311,177.009 353.311,177.009C353.311,177.009 354.658,177.536 354.717,178.767C354.776,179.998 355.714,180.936 355.714,180.936C355.714,180.936 356.917,182.167 357.298,183.105C357.679,184.043 357.738,184.395 357.298,184.747C356.858,185.099 355.246,185.45 354.308,185.157C353.37,184.864 352.461,183.633 351.465,182.959C350.468,182.285 348.828,181.816 348.446,181.289C348.065,180.761 348.388,178.709 348.739,178.123C349.091,177.537 348.591,176.746 348.913,176.394C349.235,176.042 349.646,176.013 349.646,175.045C349.646,174.078 349.47,172.789 349.059,171.382C348.649,169.976 348.033,165.755 348.209,164.729C348.385,163.703 348.649,163.175 348.649,163.175C348.649,163.175 345.423,162.357 343.928,162.357C342.434,162.357 341.056,161.478 341.056,161.478C341.056,161.478 340.616,162.708 339.151,163.177C337.686,163.646 335.429,163.061 335.429,163.061C335.429,163.061 335.603,164.232 335.163,164.878C334.724,165.523 333.346,166.139 332.876,165.435C332.408,164.731 332.056,163.354 332.085,162.445C332.115,161.536 331.734,160.687 330.679,160.13C329.623,159.573 328.214,160.072 326.807,159.017C325.4,157.961 324.052,155.998 324.052,155.998C324.052,155.998 323.199,158.841 323.14,160.013C323.082,161.186 323.022,163.823 322.729,165.523C322.437,167.223 321.967,167.604 321.967,169.011C321.967,170.417 321.671,169.979 322.463,171.502C323.255,173.026 323.43,173.173 323.372,173.906C323.313,174.639 323.021,174.727 323.021,174.727C323.021,174.727 322.493,174.199 322.493,173.671C322.493,173.144 321.877,172.382 321.672,172.88C321.467,173.378 320.966,174.17 322.08,175.313C323.194,176.456 322.784,176.339 322.432,176.339C322.08,176.339 320.879,175.753 320.292,175.196C319.706,174.639 319.293,174.58 319.059,172.411C318.824,170.242 319.82,169.832 319.527,167.78C319.234,165.729 319.172,156.995 319.348,155.471C319.524,153.947 319.759,152.95 319.29,151.133C318.821,149.316 318.697,144.745 319.694,143.104C320.691,141.462 320.836,141.755 320.543,140.817C320.25,139.879 319.399,135.6 321.773,134.662C324.147,133.724 326.609,134.075 327.283,135.98C327.957,137.886 327.371,139.205 327.576,139.703C327.781,140.201 329.774,141.462 330.448,141.667C331.123,141.872 332.294,143.278 333.145,143.015C333.995,142.751 334.932,141.579 335.138,140.26C335.343,138.941 335.9,138.766 335.226,138.12C334.552,137.476 333.378,137.388 333.203,136.567C333.028,135.746 333.335,134.858 333.694,134.507C334.053,134.155 334.471,134.075 334.471,134.075L333.854,78.479L334.967,78.479Z" style="fill:white;"/>
                </g>
                <g transform="matrix(-31.0538,0,0,24.2266,2810.84,-2585.78)">
                    <path d="M88.378,152.246C88.378,152.246 90.755,155.618 91.75,156.871C92.744,158.125 92.744,160.373 92.874,162.405C93.003,164.437 93.22,168.024 93.565,168.673C93.911,169.321 94.127,169.797 94.127,169.797C94.127,169.797 95.025,168.597 95.436,168.445C95.846,168.294 97.121,168.165 97.943,168.705C98.764,169.245 99.174,170.044 99.261,171.688C99.347,173.33 95.846,173.417 95.846,174.238C95.846,175.059 95.889,180.981 96.364,183.488C96.84,185.996 97.748,186.816 98.266,187.941C98.785,189.065 98.137,191.875 98.267,192.609C98.396,193.344 99.563,196.759 99.736,197.451C99.909,198.143 99.822,198.921 99.822,198.921C99.822,198.921 101.466,198.186 102.633,198.186C103.8,198.186 104.837,198.877 106.696,198.921C108.555,198.964 111.192,198.748 111.927,198.748C112.662,198.748 113.072,198.964 113.311,199.612C113.548,200.261 113.376,203.871 113.29,204.563C113.203,205.254 112.792,205.752 112.36,204.865C111.928,203.979 112.23,203.482 111.106,202.401C109.982,201.32 108.902,200.823 107.54,200.997C106.178,201.169 103.368,201.299 102.244,201.515C101.12,201.731 99.476,202.639 98.396,202.25C97.315,201.861 96.364,199.699 96.364,199.699L93.639,199.721L94.072,196.176L92.342,199.634L90.483,199.332C90.483,199.332 89.705,200.412 89.316,200.585C88.927,200.758 91.952,202.66 92.817,203.352C93.682,204.043 94.416,205.687 95.324,206.637C96.232,207.588 97.356,208.323 98.221,208.842C99.085,209.36 99.02,209.836 98.502,210.874C97.982,211.911 97.096,212.387 96.664,212.906C96.232,213.424 95.043,214.483 94.632,214.526C94.222,214.57 93.357,214.181 93.855,213.554C94.351,212.927 95.301,211.695 95.301,210.485C95.301,209.274 94.307,208.193 92.88,207.243C91.454,206.292 88.558,204.39 87.434,203.698C86.31,203.006 85.442,203.221 85.183,202.011C84.923,200.8 84.923,199.72 85.615,198.898C86.307,198.077 86.263,197.299 86.263,197.299C86.263,197.299 89.246,190.123 89.418,189.345C89.591,188.566 89.591,187.788 89.591,187.788L87.43,187.701C87.43,187.701 86.911,185.28 87.084,182.255C87.256,179.229 88.813,175.727 89.547,174.862C90.282,173.998 90.584,173.436 90.843,171.879C91.103,170.323 90.15,169.242 89.545,167.859C88.939,166.476 87.729,163.32 87.556,162.412C87.383,161.504 85.738,160.639 85.436,159.429C85.133,158.219 88.378,152.246 88.378,152.246ZM88.721,156.922C88.721,156.922 90.148,158.824 90.667,159.774C91.186,160.726 90.796,165.308 90.796,165.827C90.796,166.346 91.142,167.858 91.142,167.858C91.142,167.858 90.105,163.471 90.018,162.931C89.932,162.39 90.019,160.553 89.889,159.904C89.759,159.256 88.721,156.922 88.721,156.922Z" style="fill:white;"/>
                </g>
                <g transform="matrix(27.7291,0,0,21.6117,-4379.23,-706.515)">
                    <path d="M216.344,101.153C216.344,101.153 216.788,100.505 217.708,100.505C218.629,100.505 220.335,101.153 220.608,101.597C220.88,102.04 222.484,106.201 222.893,107.292C223.265,108.283 224.649,113.043 225.104,115.289L233.603,95.767L234.285,96.176L225.398,117.67C225.519,119.287 225.554,121.06 225.554,121.89C225.554,123.05 226.441,127.143 226.884,127.859C227.328,128.575 228.011,129.327 229.102,131.577C230.193,133.828 228.488,136.557 228.079,137.716C227.669,138.876 227.124,142.969 226.783,144.401C226.442,145.834 224.805,146.653 224.737,150.404C224.668,154.156 224.941,154.225 225.283,155.18C225.624,156.135 228.762,157.431 229.171,158.659C229.58,159.886 229.444,161.933 229.444,161.933L228.42,161.455L227.943,159.477L226.306,158.932C226.306,158.932 225.896,159.477 227.465,162.206C229.035,164.935 236.538,178.714 238.107,181.442C239.676,184.171 241.791,186.899 243.36,188.673C244.928,190.447 245.27,191.538 245.133,192.084C244.997,192.629 243.565,193.448 243.565,193.448C243.565,193.448 243.906,195.358 244.52,198.087C245.134,200.815 246.43,202.521 248.136,204.499C249.841,206.477 251.104,207.705 251.24,209.308C251.376,210.911 251.206,212.07 250.319,212.377C249.432,212.685 248,211.695 247.045,209.888C246.09,208.08 246.09,208.899 244.589,207.944C243.088,206.988 243.429,206.306 243.395,204.362C243.361,202.418 239.336,195.768 239.336,195.768C239.336,195.768 238.927,196.688 238.177,195.938C237.427,195.188 233.573,188.57 233.164,187.547C232.754,186.524 227.365,180.453 226.069,178.475C224.773,176.496 221.976,174.518 221.976,174.518C221.976,174.518 221.226,175.2 219.862,174.654C218.497,174.109 217.542,173.7 217.542,173.7C217.542,173.7 217.065,175.473 217.542,176.428C218.02,177.383 218.429,179.839 218.429,179.839L217.27,179.634C217.27,179.634 216.86,177.383 216.655,176.837C216.451,176.292 216.178,172.608 216.178,172.608C216.178,172.608 215.701,174.791 214.473,177.247C213.245,179.702 212.153,180.248 211.812,183.317C211.471,186.387 211.88,188.707 214.268,191.435C216.655,194.164 216.109,196.142 216.109,196.142L215.666,196.62C215.666,196.62 218.804,201.122 219.929,202.657C221.055,204.191 222.453,203.953 223.271,205.215C224.09,206.477 224.295,207.397 223.476,208.421C222.657,209.443 221.429,209.887 220.918,211.013C220.406,212.138 220.713,214.219 220.134,215.89C219.554,217.561 219.451,218.346 218.53,218.004C217.61,217.663 216.519,217.254 216.143,214.935C215.768,212.616 216.586,211.354 216.586,209.239C216.586,207.124 216.348,205.555 215.802,203.85C215.256,202.145 211.914,199.211 211.914,199.211L209.185,198.358C209.185,198.358 205.671,192.525 204.546,191.502C203.42,190.479 201.817,188.604 201.817,185.875C201.817,183.146 204.681,169.025 205.636,166.774C206.591,164.523 206.932,164.114 206.693,163.637C206.454,163.16 205.636,163.637 205.636,163.637C205.636,163.637 204.374,165.718 204.408,166.468C204.442,167.218 204.578,168.48 204.578,168.48L203.555,169.265C203.555,169.265 203.419,166.536 203.658,165.445C203.896,164.353 205.09,162.955 205.397,161.966C205.704,160.977 205.533,158.111 205.533,158.111C205.533,158.111 203.282,158.452 201.679,156.952C200.076,155.451 195.165,151.768 194.448,151.222C193.731,150.676 192.538,150.199 192.538,150.199C192.538,150.199 191.378,150.574 190.696,150.472C190.014,150.369 189.673,149.823 188.991,150.472C188.309,151.119 188.41,151.87 188.41,151.87C188.41,151.87 187.523,152.245 187.387,151.768C187.25,151.29 186.159,149.857 186.159,148.868C186.159,147.879 186.807,146.958 187.523,146.583C188.239,146.208 188.751,146.038 189.535,145.833C190.32,145.628 192.025,145.696 192.81,146.14C193.594,146.583 193.969,147.027 194.174,147.334C194.378,147.641 198.915,150.608 200.041,151.154C201.166,151.699 204.815,152.859 204.815,152.859C204.815,152.859 205.156,150.642 205.77,149.073C206.384,147.504 207.032,147.299 207.509,145.969C207.987,144.639 207.543,142.866 208.84,141.229C210.136,139.592 212.864,137.272 214.365,136.863C215.866,136.454 215.525,136.727 215.934,135.499C216.344,134.271 216.616,133.589 216.002,132.362C215.389,131.134 214.024,130.827 214.434,129.599C214.843,128.371 217.436,127.416 217.572,127.211C217.708,127.007 217.64,126.358 217.64,126.358C217.64,126.358 218.254,126.495 218.902,126.325C219.55,126.154 220.846,125.506 220.846,125.506C220.846,125.506 221.528,123.05 221.256,120.868C220.983,118.685 220.164,116.775 220.232,114.388C220.301,112 220.676,108.351 220.301,107.123C219.926,105.895 219.755,104.327 219.039,103.132C218.323,101.939 218.254,101.802 217.879,101.905C217.504,102.007 216.686,102.621 216.447,102.45C216.208,102.28 216.344,101.153 216.344,101.153Z" style="fill:white;"/>
                </g>
            </g>
        </g>
    </g>
</svg>
